Coordinates
version=1
nRows=6
nColumns=63
inDegrees=yes

Units are S.I. units (second, meters, Newtons, ...)
If the header above contains a line with 'inDegrees', this indicates whether rotational values are in degrees (yes) or radians (no).

endheader
time	pelvis_tilt	pelvis_list	pelvis_rotation	pelvis_tx	pelvis_ty	pelvis_tz	hip_flexion_r	hip_adduction_r	hip_rotation_r	knee_angle_r	knee_angle_r_beta	ankle_angle_r	subtalar_angle_r	mtp_angle_r	hip_flexion_l	hip_adduction_l	hip_rotation_l	knee_angle_l	knee_angle_l_beta	ankle_angle_l	subtalar_angle_l	mtp_angle_l	L5_S1_Flex_Ext	L5_S1_Lat_Bending	L5_S1_axial_rotation	L4_L5_Flex_Ext	L4_L5_Lat_Bending	L4_L5_axial_rotation	L3_L4_Flex_Ext	L3_L4_Lat_Bending	L3_L4_axial_rotation	L2_L3_Flex_Ext	L2_L3_Lat_Bending	L2_L3_axial_rotation	L1_L2_Flex_Ext	L1_L2_Lat_Bending	L1_L2_axial_rotation	L1_T12_Flex_Ext	L1_T12_Lat_Bending	L1_T12_axial_rotation	Abs_r3	Abs_r2	Abs_r1	Abs_t1	Abs_t2	neck_flexion	neck_bending	neck_rotation	arm_flex_r	arm_add_r	arm_rot_r	elbow_flex_r	pro_sup_r	wrist_flex_r	wrist_dev_r	arm_flex_l	arm_add_l	arm_rot_l	elbow_flex_l	pro_sup_l	wrist_flex_l	wrist_dev_l
      0.00000000	     -1.89166239	     -3.99217331	     89.10601872	     -0.09659250	      0.81405883	      0.66983088	      3.70393770	     -5.35511978	    -14.66715540	     14.24580443	      0.24863619	     33.08464139	     15.91032274	      0.00000000	      4.91378682	      2.48250748	    -10.73399527	     12.18740576	      0.21271036	     33.44512740	     12.32682987	      0.00000000	      0.12378226	     -0.33035802	     -0.20023309	      0.22987604	     -0.43937616	     -0.21274765	      0.20336188	     -0.80323248	     -0.21274765	      0.14147075	     -0.80323248	     -0.17520395	      0.11494421	     -0.67366607	     -0.16268938	      0.07072919	     -0.51172457	     -0.15017481	      0.88416433	     -3.73707595	     -1.11363635	      0.00000000	      0.00000000	     19.01643983	     -3.25960965	     -1.40847948	     16.80407901	     -9.72195107	     64.13571981	     47.16264678	     79.58748800	      0.66616759	     25.59323127	     13.91306233	    -14.87934907	     57.02817072	     50.45228782	     80.81898461	      6.12682641	      7.81950725
      0.02564103	     -1.59629280	     -4.09216365	     89.95501884	     -0.09810419	      0.81338839	      0.66876043	      3.30026387	     -5.26084129	    -16.70063140	     14.15682660	      0.24708324	     32.38134913	     15.88551191	      0.00000000	      5.05065768	      2.19480289	    -10.59647780	     12.35624765	      0.21565720	     34.18945946	     13.54463972	      0.00000000	      0.13315537	     -0.30795933	     -0.24936946	      0.24728284	     -0.40958591	     -0.26495505	      0.21876096	     -0.74877233	     -0.26495505	      0.15218327	     -0.74877233	     -0.21819828	      0.12364808	     -0.62799067	     -0.20261269	      0.07608498	     -0.47702901	     -0.18702710	      0.95111549	     -3.48369758	     -1.38691814	      0.00000000	      0.00000000	     19.29859123	     -3.23372298	     -2.49936548	     16.59237670	     -9.96265927	     64.51678075	     47.02437319	     82.38767808	      6.91699106	     25.37751343	     13.53060753	    -14.73022619	     56.79553476	     50.54141682	     81.70081240	      7.93930323	      9.19959153
      0.05128205	     -1.44651546	     -4.22564271	     90.22609449	     -0.09862277	      0.81281752	      0.66802291	      3.21857826	     -5.18565392	    -17.38518798	     14.18567960	      0.24758682	     31.91564175	     15.40139116	      0.00000000	      5.12063138	      2.07359199	    -10.39431027	     12.31626450	      0.21495937	     34.54952366	     13.78966566	      0.00000000	      0.15044428	     -0.29785923	     -0.20738845	      0.27939007	     -0.39615277	     -0.22035023	      0.24716490	     -0.72421492	     -0.22035023	      0.17194276	     -0.72421492	     -0.18146489	      0.13970256	     -0.60739453	     -0.16850311	      0.08596386	     -0.46138394	     -0.15554134	      1.07460843	     -3.36944313	     -1.15343233	      0.00000000	      0.00000000	     19.58020661	     -3.08838828	     -2.98621400	     16.21901446	    -10.34039749	     65.10411147	     47.49567158	     82.45386453	      7.66981114	     25.16314568	     13.40088799	    -14.77169844	     57.19630451	     50.74266233	     81.84424440	      8.20861894	      9.42927545
      0.07692308	     -1.37904619	     -4.22274644	     90.31459807	     -0.09864491	      0.81266726	      0.66739005	      3.11182458	     -5.15394864	    -17.66314086	     14.24784674	      0.24867184	     31.68945563	     15.21609718	      0.00000000	      5.07459054	      2.00172422	    -10.42665191	     12.36655183	      0.21583705	     34.63942794	     13.79195638	      0.00000000	      0.15601306	     -0.29526821	     -0.19166753	      0.28973185	     -0.39270672	     -0.20364675	      0.25631385	     -0.71791513	     -0.20364675	      0.17830732	     -0.71791513	     -0.16770909	      0.14487373	     -0.60211094	     -0.15572987	      0.08914586	     -0.45737046	     -0.14375065	      1.11438567	     -3.34013308	     -1.06599730	      0.00000000	      0.00000000	     19.68924380	     -3.07761629	     -3.10139349	     15.90663233	    -10.33880160	     65.27503965	     47.60307970	     82.44241800	      7.79848845	     25.01164622	     13.28164737	    -14.81859172	     57.32866904	     50.75920633	     81.86866345	      8.27196128	      9.49669208
      0.10256410	     -0.99128040	     -4.32777375	     91.37580884	     -0.09962434	      0.81240837	      0.66773217	      2.94800177	     -4.74490266	    -18.78255156	     14.01732425	      0.24464846	     31.52503344	     15.10119004	      0.00000000	      5.55104476	      1.46630279	    -10.64783542	     13.09410995	      0.22853533	     35.07075988	     15.12414259	      0.00000000	      0.15716901	     -0.27842163	     -0.26214413	      0.29187856	     -0.37030076	     -0.27852814	      0.25821296	     -0.67695434	     -0.27852814	      0.17962846	     -0.67695434	     -0.22937612	      0.14594714	     -0.56775738	     -0.21299211	      0.08980637	     -0.43127510	     -0.19660810	      1.12264250	     -3.14956112	     -1.45796703	      0.00000000	      0.00000000	     19.68601251	     -3.34900448	     -5.22549921	     15.56778885	    -10.85677134	     65.31566747	     47.82252902	     81.83128150	      6.93177304	     21.16027640	     14.09233748	    -14.87068234	     58.79747116	     50.82052947	     81.32439848	      8.57164213	     10.26603470
      0.12820513	     -0.90311810	     -4.34802781	     91.46492802	     -0.09938635	      0.81242018	      0.66774483	      2.95698967	     -4.62521463	    -18.82731543	     13.98282741	      0.24404638	     31.56382509	     15.16539599	      0.00000000	      5.61689022	      1.30709653	    -10.93249603	     13.26506815	      0.23151911	     35.05689446	     15.28669732	      0.00000000	      0.15679889	     -0.28004720	     -0.21218880	      0.29119123	     -0.37246278	     -0.22545060	      0.25760490	     -0.68090676	     -0.22545060	      0.17920546	     -0.68090676	     -0.18566520	      0.14560345	     -0.57107225	     -0.17240340	      0.08959489	     -0.43379311	     -0.15914160	      1.11999883	     -3.16794994	     -1.18013046	      0.00000000	      0.00000000	     19.71098746	     -3.23270263	     -5.69524767	     15.18791912	    -11.15101776	     65.48081784	     48.29916972	     78.90720306	      3.59088458	     19.70733810	     14.62116836	    -15.02404810	     60.03780308	     50.88485771	     80.05875867	      7.59677851	      9.99388930
